<svg xmlns="http://www.w3.org/2000/svg" viewBox="0 0 64 64">
  <defs>
    <linearGradient id="g" x1="0%" y1="0%" x2="100%" y2="100%">
      <stop offset="0%" stop-color="#0d6efd"/>
      <stop offset="100%" stop-color="#20c997"/>
    </linearGradient>
  </defs>
  <rect x="6" y="6" width="52" height="52" rx="16" fill="#0b1020"/>
  <rect x="10" y="10" width="44" height="44" rx="13" fill="url(#g)" opacity="0.18"/>
  <path d="M32 14c2.2 0 4 1.8 4 4v2h4c4.4 0 8 3.6 8 8v10c0 6.6-5.4 12-12 12H28c-6.6 0-12-5.4-12-12V28c0-4.4 3.6-8 8-8h4v-2c0-2.2 1.8-4 4-4Z" fill="#dce7ff"/>
  <circle cx="26" cy="33" r="4" fill="#0b1020"/>
  <circle cx="38" cy="33" r="4" fill="#0b1020"/>
  <path d="M24 43c2.7 2.7 13.3 2.7 16 0" stroke="#0b1020" stroke-width="3" stroke-linecap="round" fill="none"/>
  <path d="M32 14v6" stroke="#7bc2ff" stroke-width="3" stroke-linecap="round"/>
  <circle cx="32" cy="12" r="3" fill="#7bc2ff"/>
</svg>
